<svg xmlns="http://www.w3.org/2000/svg" width="512" height="512" viewBox="0 0 512 512" version="1.1">
	<path d="M 216 54.069 C 204.452 55.328, 181.154 59.606, 172 62.149 C 154.583 66.987, 141.492 73.655, 132.146 82.449 C 125.934 88.294, 123.215 93.088, 122.334 99.747 C 121.959 102.577, 120.178 107.052, 117.930 110.807 C 111.597 121.392, 111.789 128.640, 118.643 137.619 L 122.231 142.319 125.587 171.910 C 129.616 207.431, 140.438 296.354, 146.043 340 C 153.750 400.020, 156.903 421.203, 158.490 423.626 C 163.087 430.641, 179.560 439.939, 195.500 444.516 C 214.659 450.017, 225.449 451.329, 252 451.385 C 278.362 451.441, 290.059 450.225, 309.107 445.447 C 329.774 440.264, 348.081 429.434, 350.911 420.717 C 351.881 417.730, 353.926 403.803, 360.490 355.500 C 361.910 345.050, 363.526 335.084, 364.080 333.353 C 365.331 329.443, 368.047 328.345, 378.330 327.588 C 389.090 326.796, 405.727 321.138, 416.226 314.699 C 442.827 298.386, 460.403 266.023, 461.732 230.910 C 462.536 209.667, 458.637 194.654, 448.702 180.731 C 438.066 165.826, 424.219 158.117, 404.221 155.967 C 389.602 154.395, 388.055 154.055, 385.944 151.944 C 382.814 148.814, 383.471 144.495, 387.888 139.179 C 397.565 127.532, 398.268 118.880, 390.432 107.832 C 388.611 105.265, 386.807 101.440, 386.424 99.332 C 383.798 84.914, 369.173 73.064, 343.500 64.553 C 334.159 61.456, 310.602 56.598, 297 54.964 C 284.786 53.496, 227.097 52.859, 216 54.069 M 211.500 65.526 C 186.349 68.491, 168.314 73.219, 153.906 80.625 C 133.925 90.894, 129.541 99.594, 139.387 109.440 C 151.084 121.136, 175.231 129.983, 209.436 135.102 C 228.830 138.004, 266.791 138.727, 287 136.579 C 315.812 133.517, 338.935 127.674, 355.094 119.373 C 373.407 109.966, 378.694 101.514, 372.526 91.500 L 370.062 87.500 370.009 91 C 369.759 107.498, 345.714 120.302, 302.442 126.981 C 242.175 136.284, 168.489 126.768, 148.182 107.061 C 140.453 99.560, 143.059 94.018, 157.798 86.607 C 171.073 79.931, 189.522 75.359, 215 72.432 C 232.700 70.398, 281.056 70.964, 300.724 73.435 C 324.177 76.382, 345.177 82.515, 355.668 89.480 C 358.601 91.427, 361 92.746, 361 92.411 C 361 92.076, 360.287 90.301, 359.417 88.465 C 355.133 79.438, 334.941 71.832, 301 66.462 C 286.268 64.131, 228.462 63.526, 211.500 65.526 M 277.218 88.127 C 273.212 88.581, 268.037 89.825, 265.718 90.892 L 261.500 92.831 275.640 92.916 C 296.164 93.038, 311.951 96.556, 321.051 103.036 C 325.687 106.337, 325.684 104.697, 321.045 99.665 C 312.595 90.497, 295.656 86.038, 277.218 88.127 M 205.571 93.571 C 203.618 95.525, 203.600 96.457, 205.478 98.335 C 206.703 99.560, 209.656 99.726, 222.728 99.301 C 240.880 98.711, 251.625 100.393, 268.717 106.502 C 274.031 108.401, 278.549 109.784, 278.758 109.575 C 279.838 108.496, 275.897 104.691, 270.993 102.077 C 258.894 95.628, 239.621 92, 217.465 92 C 209.415 92, 206.797 92.346, 205.571 93.571 M 376 119.943 C 368.287 127.766, 358.856 132.991, 342 138.779 C 293.594 155.401, 235.931 157.264, 183.154 143.910 C 157.977 137.541, 139.420 128.658, 130.395 118.655 L 126.023 113.809 124.935 116.655 C 119.140 131.801, 153.304 149.057, 205 157.096 C 224.503 160.129, 271.521 160.912, 291.994 158.546 C 338.468 153.174, 374.742 139.845, 382.852 125.161 C 384.621 121.958, 385.045 120.054, 384.563 117.486 C 384.211 115.607, 383.602 113.908, 383.211 113.710 C 382.820 113.512, 379.575 116.316, 376 119.943 M 135.444 152.553 C 135.807 154.490, 137.403 166.971, 138.990 180.288 C 142.565 210.295, 147.602 251.344, 154.109 303.500 C 156.853 325.500, 160.432 354.452, 162.061 367.837 C 164.986 391.862, 167.463 409.852, 168.596 415.292 C 169.453 419.410, 173.425 422.683, 183.500 427.573 C 193.319 432.339, 205.493 436.133, 219.500 438.792 C 233.324 441.416, 274.450 441.107, 289.589 438.266 C 306.837 435.029, 316.287 432.157, 326.217 427.132 C 336.434 421.962, 338.793 419.459, 340.135 412.368 C 344.179 391.001, 372.985 163.907, 372.996 153.315 L 373 149.129 364.469 153.071 C 333.471 167.391, 282.535 174.869, 234.808 172.104 C 197.276 169.930, 165.478 163.176, 142.142 152.421 L 134.783 149.030 135.444 152.553 M 392.479 191.334 C 386.904 193.164, 383.522 195.560, 382.096 198.690 C 380.866 201.388, 379.058 214.299, 374.514 252.808 C 371.319 279.886, 371.317 282.035, 374.480 285.794 C 378.047 290.033, 381.989 291.355, 389.311 290.767 C 397.623 290.100, 403.085 287.161, 411.053 279.070 C 415.947 274.099, 418.780 270.023, 422.251 262.958 C 429.098 249.019, 430.439 243.074, 430.472 226.500 C 430.497 214.176, 430.238 211.933, 428.314 207.767 C 422.991 196.244, 415.400 190.899, 403.567 190.345 C 399.483 190.154, 394.803 190.571, 392.479 191.334" stroke="none" fill="white" fill-rule="evenodd"/>
</svg>